<svg xmlns="http://www.w3.org/2000/svg" viewBox="0 0 448 512">
    <!--!Font Awesome Free 6.5.2 by @fontawesome - https://fontawesome.com License - https://fontawesome.com/license/free Copyright 2024 Fonticons, Inc.-->
    <path d="M96 0C43 0 0 43 0 96V416c0 53 43 96 96 96H384c17.7 0 32-14.3 32-32s-14.3-32-32-32V384C384 339.8 348.2 304 304 304H144c-17.7 0-32 14.3-32 32s14.3 32 32 32H304c26.5 0 48 21.5 48 48V480H96c-17.7 0-32-14.3-32-32s14.3-32 32-32H384V96c0-17.7-14.3-32-32-32H96zM144 224a32 32 0 1 0 0-64 32 32 0 1 0 0 64zm-32-32a32 32 0 1 0 -64 0 32 32 0 1 0 64 0zm128-32a32 32 0 1 0 0-64 32 32 0 1 0 0 64z"/>
</svg>
